Coordinates
version=1
nRows=17
nColumns=36
inDegrees=yes

Units are S.I. units (second, meters, Newtons, ...)
If the header above contains a line with 'inDegrees', this indicates whether rotational values are in degrees (yes) or radians (no).

endheader
time	pelvis_tilt	pelvis_list	pelvis_rotation	pelvis_tx	pelvis_ty	pelvis_tz	hip_flexion_r	hip_adduction_r	hip_rotation_r	knee_angle_r	knee_angle_r_beta	ankle_angle_r	subtalar_angle_r	mtp_angle_r	hip_flexion_l	hip_adduction_l	hip_rotation_l	knee_angle_l	knee_angle_l_beta	ankle_angle_l	subtalar_angle_l	mtp_angle_l	lumbar_extension	lumbar_bending	lumbar_rotation	arm_flex_r	arm_add_r	arm_rot_r	elbow_flex_r	pro_sup_r	arm_flex_l	arm_add_l	arm_rot_l	elbow_flex_l	pro_sup_l
      1.71666670	      0.60335190	      0.63966478	      0.29456622	     -0.93820987	      1.25507824	     -0.04261915	     -7.86116722	      0.47260609	     -5.09025401	      0.31666206	      0.00552680	      4.28062989	     -7.55027350	     -7.49999987	     -8.30833000	     -1.05875522	     -6.26256422	      0.70113016	      0.01223703	      7.50958446	      7.05612928	     -7.49999987	     -5.43940228	      0.17556392	     -0.81541553	     10.95601513	     -7.97572295	     33.13977647	     31.06221961	     67.70660924	     13.36985583	     -9.08680094	     49.54410282	     26.34965978	     50.36778906
      1.72083330	      0.54305503	      0.62519419	      0.31407177	     -0.93951703	      1.24883891	     -0.04402717	     -7.76285848	      0.46332785	     -5.22665768	      0.31865060	      0.00556150	      4.28150061	     -7.46969454	     -7.49999987	     -8.23525668	     -1.06035882	     -6.34804943	      0.69219271	      0.01208104	      7.54967409	      7.13808121	     -7.49999987	     -5.36447791	      0.19558146	     -0.83814169	     11.02793466	     -7.95482115	     33.32607858	     30.94921372	     67.60697096	     13.42113237	     -9.09164269	     49.68735237	     26.25001529	     50.23897017
      1.72500000	      0.58583160	      0.62191056	      0.36127622	     -0.93883933	      1.25087858	     -0.04358616	     -7.81888587	      0.46447758	     -5.34733440	      0.31425045	      0.00548471	      4.34385683	     -7.25932636	     -7.49999987	     -8.27678760	     -1.07007256	     -6.15444674	      0.64801304	      0.01130996	      7.44017406	      7.00101242	     -7.49999987	     -5.46582117	      0.19458337	     -0.87067107	     10.97678204	     -7.96676361	     33.08526258	     31.25091926	     67.29624144	     13.39209544	     -9.14961512	     49.42094604	     26.55461656	     50.42424441
      1.72916670	      0.56763661	      0.61722266	      0.40553210	     -0.93788678	      1.24929721	     -0.04279236	     -7.82310535	      0.48685802	     -5.35659561	      0.31343430	      0.00547046	      4.39012702	     -7.25029423	     -7.49999987	     -8.26529225	     -1.08494231	     -6.27697980	      0.62360390	      0.01088394	      7.47333121	      7.17859799	     -7.49999987	     -5.39113358	      0.17274591	     -0.87077266	     10.88025723	     -7.94082630	     32.96340834	     31.32507601	     67.02607130	     13.34606895	     -9.16820238	     49.19998887	     26.57482264	     50.64194397
      1.73333330	      0.50454164	      0.60704237	      0.40347251	     -0.93752183	      1.24813944	     -0.04384105	     -7.78364812	      0.49340590	     -5.21139275	      0.31285915	      0.00546042	      4.26832253	     -7.45420534	     -7.49999987	     -8.21006669	     -1.08515200	     -6.41955029	      0.62411983	      0.01089295	      7.64187316	      7.37339310	     -7.49999987	     -5.21788306	      0.19379155	     -0.84243304	     10.90395748	     -7.95403554	     33.21727988	     31.06492439	     67.31710703	     13.34367036	     -9.10894350	     49.48096766	     26.31113922	     50.26477305
      1.73750000	      0.53835501	      0.62801475	      0.50064796	     -0.93870964	      1.24801225	     -0.04385195	     -7.86012291	      0.48110960	     -5.46155919	      0.31316112	      0.00546569	      4.36215121	     -7.13304928	     -7.49999987	     -8.23704176	     -1.05463328	     -6.17320315	      0.62231358	      0.01086142	      7.57235942	      7.05053779	     -7.49999987	     -5.25622440	      0.16602580	     -0.92043634	     10.84646239	     -7.96936891	     33.03430648	     31.22450951	     67.06246517	     13.31565665	     -9.16484984	     49.26877365	     26.45765677	     50.44028905
      1.74166670	      0.50056526	      0.61972877	      0.44137979	     -0.93991347	      1.24902067	     -0.04418546	     -7.82248200	      0.46318411	     -5.27091051	      0.31809406	      0.00555179	      4.35548681	     -7.20950249	     -7.49999987	     -8.20135219	     -1.03753526	     -6.45149220	      0.61668800	      0.01076324	      7.64714179	      7.35956251	     -7.49999987	     -5.22214248	      0.19490615	     -0.87851441	     10.81638578	     -7.96433625	     32.87313106	     31.32260658	     66.76680044	     13.27313427	     -9.16379195	     48.98402447	     26.52530864	     50.72455398
      1.74583330	      0.57120726	      0.61492256	      0.44579295	     -0.93998753	      1.24794174	     -0.04439651	     -7.89949852	      0.46636051	     -5.15362122	      0.31853258	      0.00555944	      4.33138859	     -7.29414788	     -7.49999987	     -8.25870032	     -1.02867339	     -6.39973963	      0.62760420	      0.01095376	      7.67756092	      7.37113447	     -7.49999987	     -5.32067889	      0.19846001	     -0.81505808	     10.87603780	     -8.00255484	     32.93653766	     31.31850641	     66.74677445	     13.35511956	     -9.15348451	     49.00482588	     26.52059375	     50.76759310
      1.75000000	      0.52227369	      0.60944752	      0.43869248	     -0.94044381	      1.24523450	     -0.04322868	     -7.83328458	      0.49142012	     -4.91986247	      0.32103731	      0.00560316	      4.35240291	     -7.48482962	     -7.49999987	     -8.19059537	     -1.02970613	     -6.34718060	      0.63724898	      0.01112209	      7.73882512	      7.41551925	     -7.49999987	     -5.24324669	      0.19896332	     -0.78856386	     10.93469307	     -8.04763152	     33.28923546	     31.18221583	     67.04124148	     13.40578140	     -9.19395652	     49.37950435	     26.53754295	     50.49894139
      1.75416670	      0.49338380	      0.58166708	      0.42782237	     -0.93886602	      1.24535425	     -0.04259926	     -7.82520396	      0.54312452	     -4.83928836	      0.32446945	      0.00566306	      4.51833358	     -7.34914133	     -7.49999987	     -8.17406357	     -1.07620895	     -6.35591763	      0.63780234	      0.01113175	      7.86892662	      7.65479963	     -7.49999987	     -5.13054321	      0.20042410	     -0.63450805	     10.72958659	     -8.01600086	     32.60339761	     31.16254160	     68.80046329	     13.65979491	     -9.24096960	     51.27666760	     26.32320579	     46.79957110
      1.75833330	      0.51343248	      0.55695844	      0.46525657	     -0.93770476	      1.24686002	     -0.04324967	     -7.88832345	      0.59162777	     -4.99918097	      0.32678698	      0.00570351	      4.72585146	     -6.93815491	     -7.49999987	     -8.22363780	     -1.11436275	     -6.26496759	      0.63262367	      0.01104137	      8.02116788	      7.74431444	     -7.49999987	     -5.14091526	      0.22055639	     -0.67610284	     10.62194873	     -8.00462739	     32.38436125	     31.18065784	     68.17560987	     13.50536409	     -9.25148671	     50.69613014	     26.43886670	     47.56505231
      1.76250000	      0.45506991	      0.54527443	      0.39179899	     -0.93749970	      1.24776331	     -0.04296027	     -7.85058629	      0.60444171	     -4.70248220	      0.32521843	      0.00567613	      4.67405902	     -7.18449414	     -7.49999987	     -8.21463546	     -1.12894816	     -6.28769096	      0.62631339	      0.01093123	      8.07557920	      7.77247391	     -7.49999987	     -4.99669415	      0.20545237	     -0.58712621	     10.58742570	     -8.01864690	     32.71527000	     30.93314271	     68.00123859	     13.38815957	     -9.23911908	     50.51688422	     26.40750799	     48.00041089
      1.76666670	      0.47568477	      0.52256126	      0.34591158	     -0.93799130	      1.24724369	     -0.04341006	     -7.88924154	      0.62388383	     -4.63121459	      0.32207093	      0.00562120	      4.65976541	     -7.20396005	     -7.49999987	     -8.26796497	     -1.15016064	     -6.30872643	      0.61123630	      0.01066809	      8.13841489	      7.71924849	     -7.49999987	     -5.03869676	      0.22693192	     -0.54198824	     10.50331492	     -8.05113433	     32.48996393	     31.07307964	     67.29572543	     13.26029470	     -9.26204335	     49.90019974	     26.63360509	     48.87753969
      1.77083330	      0.39476949	      0.51358468	      0.27987342	     -0.93826302	      1.25080332	     -0.04382990	     -7.79117033	      0.61484918	     -4.55131978	      0.31790685	      0.00554852	      4.57835214	     -7.24587643	     -7.49999987	     -8.18940166	     -1.16132989	     -6.32487023	      0.59851897	      0.01044613	      8.09161580	      7.67365242	     -7.49999987	     -4.91381471	      0.24675376	     -0.52524102	     10.61359214	     -8.10019544	     33.07259906	     30.75589861	     67.37537174	     13.23926150	     -9.19710161	     50.04776455	     26.40900729	     49.07155838
      1.77500000	      0.39344766	      0.53496352	      0.31782964	     -0.93829591	      1.25084250	     -0.04419521	     -7.78160310	      0.56431990	     -4.88074197	      0.31351572	      0.00547188	      4.73090126	     -6.73990276	     -7.49999987	     -8.19051386	     -1.12035607	     -6.12668831	      0.57652873	      0.01006232	      7.94831172	      7.41623353	     -7.49999987	     -4.98843433	      0.25261543	     -0.56619743	     10.59318268	     -8.13103809	     32.92613327	     30.72917800	     66.95947383	     13.23749079	     -9.16526004	     49.66142997	     26.49380027	     49.53650536
      1.77916670	      0.31781872	      0.52151694	      0.12339272	     -0.93936579	      1.25355395	     -0.04149526	     -7.62330369	      0.60024436	     -4.73331424	      0.30559925	      0.00533371	      4.61248349	     -6.95643035	     -7.49999987	     -8.12098535	     -1.14866682	     -6.46769417	      0.55721332	      0.00972521	      7.88016360	      7.70936437	     -7.49999987	     -4.95334819	      0.22401828	     -0.36801752	     10.70913132	     -8.06289260	     33.00211268	     30.61337472	     66.79589547	     13.21151779	     -9.13784145	     49.52253227	     26.40847864	     49.75031768
      1.78333330	      0.21285273	      0.52099334	      0.01632039	     -0.93903485	      1.25582053	     -0.04124814	     -7.43668513	      0.63429608	     -4.72258064	      0.29490656	      0.00514709	      4.47641376	     -7.01190327	     -7.49999987	     -8.00551211	     -1.18081688	     -6.65996509	      0.55025868	      0.00960383	      7.70190084	      7.92384846	     -7.49999987	     -4.85482193	      0.18569199	     -0.31628538	     10.92282533	     -7.97211407	     33.65783378	     30.14168223	     66.97206247	     13.26368463	     -9.10050655	     49.90904325	     26.01182419	     49.70356444
